<svg width="32" height="32" viewBox="0 0 32 32" fill="none" xmlns="http://www.w3.org/2000/svg">
<g clip-path="url(#clip0_10246_1715)">
<rect width="32" height="32" fill="white"/>
<path d="M4 6.66667V25.3333C4 26.0406 4.28095 26.7189 4.78105 27.219C5.28115 27.719 5.95942 28 6.66667 28H14.6667V4H6.66667C5.95942 4 5.28115 4.28095 4.78105 4.78105C4.28095 5.28115 4 5.95942 4 6.66667ZM25.3333 4H17.3333V14.6667H28V6.66667C28 5.2 26.8 4 25.3333 4ZM17.3333 28H25.3333C26.8 28 28 26.8 28 25.3333V17.3333H17.3333V28Z" fill="#E56B29"/>
</g>
<defs>
<clipPath id="clip0_10246_1715">
<rect width="32" height="32" fill="white"/>
</clipPath>
</defs>
</svg>
