<svg width="1445" height="213" viewBox="0 0 1445 213" fill="none" xmlns="http://www.w3.org/2000/svg">
<g clip-path="url(#clip0_21_3)">
<path d="M0 8.60156H85.1237C135.352 8.60156 167.699 34.6939 167.699 79.1266V79.7018C167.699 126.997 131.664 151.952 82.2901 151.952H55.0542V209.287H0V8.60156ZM81.1515 108.356C100.728 108.356 112.644 98.0422 112.644 82.277V81.7018C112.644 64.4987 100.728 55.335 80.8669 55.335H55.0542V108.369H81.1515V108.356Z" fill="#F15533"/>
<path d="M182.151 0H238.331V40.132H182.151V0ZM183.29 54.1847H237.205V209.274H183.29V54.1847Z" fill="#F15533"/>
<path d="M270.962 161.116V98.0422H252.796V54.1847H270.962V14.9024H324.878V54.1847H360.628V98.0422H324.878V150.514C324.878 161.404 329.704 165.992 339.628 165.992C346.718 165.992 353.537 163.992 360.058 160.828V203.549C350.406 209 337.648 212.438 322.601 212.438C290.254 212.438 270.962 198.111 270.962 161.129V161.116Z" fill="#F15533"/>
<path d="M373.385 132.449V131.873C373.385 88.0158 407.155 51.0342 455.675 51.0342C487.168 51.0342 508.167 64.7994 521.223 85.7281L484.619 113.245C477.244 102.931 469.015 96.9049 455.96 96.9049C438.648 96.9049 425.877 112.396 425.877 131.311V131.886C425.877 151.952 438.363 167.142 456.529 167.142C469.3 167.142 477.529 161.129 486.042 151.09L522.077 177.456C507.896 198.673 487.466 213.013 453.696 213.013C407.44 213.013 373.398 176.319 373.398 132.462L373.385 132.449Z" fill="#F15533"/>
<path d="M529.723 0H583.639V75.401C593.576 62.4986 607.757 50.7467 629.61 50.7467C662.242 50.7467 681.818 72.5382 681.818 107.794V209.274H627.902V125.285C627.902 108.369 619.117 99.1926 606.333 99.1926C593.55 99.1926 583.639 108.369 583.639 125.285V209.274H529.723V0Z" fill="#F15533"/>
<path d="M699.389 8.60166H757.561L792.172 124.71L830.484 8.03955H877.865L916.164 124.71L950.788 8.60166H1007.82L941.433 210.712H893.469L853.463 95.1795L813.741 210.712H765.777L699.389 8.60166Z" fill="#F15533"/>
<path d="M989.927 132.449V131.873C989.927 87.7282 1025.68 50.7336 1075.05 50.7336C1124.43 50.7336 1159.61 87.153 1159.61 131.298V131.873C1159.61 176.018 1123.86 213.013 1074.48 213.013C1025.11 213.013 989.927 176.607 989.927 132.462V132.449ZM1107.11 132.449V131.873C1107.11 112.958 1093.49 96.8919 1074.48 96.8919C1055.47 96.8919 1042.42 112.657 1042.42 131.298V131.873C1042.42 150.789 1056.04 166.855 1075.05 166.855C1094.06 166.855 1107.11 151.09 1107.11 132.462V132.449Z" fill="#F15533"/>
<path d="M1170.94 54.1846H1224.85V85.4274C1233.65 64.2111 1247.83 50.459 1273.38 51.5963V108.931H1268.85C1240.76 108.931 1224.87 125.272 1224.87 161.103V209.261H1170.95V54.1846H1170.94Z" fill="#F15533"/>
<path d="M1286.72 0H1340.63V106.069L1382.35 54.1716H1443.35L1390 116.383L1444.76 209.274H1385.45L1354.53 156.528L1340.62 172.868V209.274H1286.7V0H1286.72Z" fill="#F15533"/>
</g>
<defs>
<clipPath id="clip0_21_3">
<rect width="1445" height="213" fill="white"/>
</clipPath>
</defs>
</svg>
